# xmcd
#
# Track frame offsets: 
#        150
#        2537
#        6669
#        7140
#        7610
#        21760
#        36800
#        40379
#        46666
#        49913
#        52135
#        55167
#        60682
#        64293
#        66957
#        72135
#        83415
#        86751
#        92969
#        102653
#        109811
#        117544
#        124522
#        135028
#        141178
#        146612
#        156229
#        163961
#        175655
#        189177
#        199037
#        212040
#        214482
#        219370
#        227199
#        234169
#        246762
#        249264
#        260376
#        271830
#        279794
#        284090
#        285193
#        287668
#        296025
#        298324
#        299099
#        302356
#        318846
#        319597
#        334328
#        334754
#        336008
#        336661
#        339263
#        351632
#
# Disc length: 4707 seconds
#
# Revision: 0
# Processed by: cddbd v1.5.2PL0 Copyright (c) Steve Scherf et al.
# Submitted via: ExactAudioCopy v0.95b4
#
DISCID=5f126138
DTITLE=The Beatles  - AB  Road - Complete Purple Chick Set v1.1 Jan.03
DTITLE=Various Artist - D1  FLAC
DYEAR=1900
DGENRE=
TTITLE0=The Long And Winding Road 3.01
TTITLE1=Oh! Darling 3.02
TTITLE2=Oh! Darling 3.03
TTITLE3=Unknown 3.04
TTITLE4=Maxwell's Silver Hammer 3.05
TTITLE5=Adagio For Strings 3.06
TTITLE6=Adagio For Strings 3.07
TTITLE7=Tea For Two Cha Cha 3.08
TTITLE8=Tea For Two Cha Cha 3.09
TTITLE9=Chopsticks 3.10
TTITLE10=Unknown 3.11
TTITLE11=Torchy, The Battery Boy 3.12
TTITLE12=Whole Lotta Shakin' Goin' On 3.13
TTITLE13=Unknown 3.14
TTITLE14=Let It Be 3.15
TTITLE15=Unknown 3.16
TTITLE16=Taking A Trip To Carolina 3.17
TTITLE17=Unknown 3.18
TTITLE18=Dialogue
TTITLE19=Please, Mrs Henry 3.19
TTITLE20=Ramblin' Woman 3.20
TTITLE21=Is It Discovered 3.21
TTITLE22=Improvisation 3.22
TTITLE23=Picasso 3.23
TTITLE24=Taking A Trip To Carolina 3.24
TTITLE25=Hey Jude 3.25
TTITLE26=All Things Must Pass 3.26
TTITLE27=Don't Let Me Down 3.27
TTITLE28=Your Name Is Ted 3.28
TTITLE29=Crackin' Up 3.29
TTITLE30=Improvisation 3.30
TTITLE31=Crackin' Up 3.31
TTITLE32=All Shook Up 3.32
TTITLE33=Your True Love 3.33
TTITLE34=Blue Suede Shoes 3.34
TTITLE35=Three Cool Cats 3.35
TTITLE36=Blowin' In The Wind 3.36
TTITLE37=Lucille 3.37
TTITLE38=I'm So Tired 3.38
TTITLE39=Ob-la-di, Ob-la-da 3.39
TTITLE40=Get On The Phone 3.40
TTITLE41=Ob-la-di, Ob-la-da 3.41
TTITLE42=Don't Let Me Down 3.42
TTITLE43=The Third Man Theme 3.43
TTITLE44=Improvisation 3.44
TTITLE45=My Words Are My Heart 3.45
TTITLE46=Negro In Reserve 3.46
TTITLE47=Don't Let Me Down 3.47
TTITLE48=Don't Let Me Down 3.48
TTITLE49=Don't Let Me Down 3.49
TTITLE50=Don't Let Me Down 3.50
TTITLE51=Ob-la-di, Ob-la-da 3.51
TTITLE52=Don't Let Me Down 3.52
TTITLE53=Don't Let Me Down 3.53
TTITLE54=Don't Let Me Down 3.54
TTITLE55=Sun King 3.55
EXTD=
EXTT0=
EXTT1=
EXTT2=
EXTT3=
EXTT4=
EXTT5=
EXTT6=
EXTT7=
EXTT8=
EXTT9=
EXTT10=
EXTT11=
EXTT12=
EXTT13=
EXTT14=
EXTT15=
EXTT16=
EXTT17=
EXTT18=
EXTT19=
EXTT20=
EXTT21=
EXTT22=
EXTT23=
EXTT24=
EXTT25=
EXTT26=
EXTT27=
EXTT28=
EXTT29=
EXTT30=
EXTT31=
EXTT32=
EXTT33=
EXTT34=
EXTT35=
EXTT36=
EXTT37=
EXTT38=
EXTT39=
EXTT40=
EXTT41=
EXTT42=
EXTT43=
EXTT44=
EXTT45=
EXTT46=
EXTT47=
EXTT48=
EXTT49=
EXTT50=
EXTT51=
EXTT52=
EXTT53=
EXTT54=
EXTT55=
PLAYORDER=
